<svg width="112" height="134" viewBox="0 0 112 134" fill="none" xmlns="http://www.w3.org/2000/svg">
<g clip-path="url(#clip0)">
<path d="M36 0H0L40 80.4H76L36 0Z" fill="#2980B9"/>
<path d="M76 0H112L72 80.4H36L76 0Z" fill="#3498DB"/>
<path d="M56 53.6C78.0907 53.6 96 71.6016 96 93.8C96 116.001 78.0907 134 56 134C33.9107 134 16 116.001 16 93.8C16 71.5989 33.908 53.6 56 53.6Z" fill="#F1C40E"/>
<path d="M56 61.64C38.3267 61.64 24 76.0383 24 93.8C24 111.562 38.3267 125.96 56 125.96C73.6733 125.96 88 111.562 88 93.8C88 76.0383 73.6733 61.64 56 61.64ZM56 123.28C39.8013 123.28 26.6667 110.081 26.6667 93.8C26.6667 77.5217 39.8013 64.32 56 64.32C72.2 64.32 85.3333 77.5217 85.3333 93.8C85.3333 110.081 72.2 123.28 56 123.28Z" fill="#D8B00C"/>
<path d="M21.836 114.716C27.0827 123.35 35.4813 129.835 45.4227 132.568L68 109.88L61.3333 84.42L53.328 83.0653L21.836 114.716V114.716Z" fill="#CDA70C"/>
<path d="M52.2307 125.731L54.7013 123.246C43.7107 122.765 34.2907 116.203 29.6867 106.826L27.7053 108.816C32.5147 117.951 41.5693 124.471 52.2307 125.731Z" fill="#B8960A"/>
<path d="M61.3173 109.853V88.4039H53.328V83.0667C54.512 83.0948 55.6573 83.1873 56.76 82.9662C58.1213 82.6941 58.5093 82.5936 59.3587 82.0121C60.8373 81.0084 61.1893 80.3639 61.7173 79.4312C62.4613 78.1194 62.3933 77.6745 62.5827 76.3774H68.0067V109.853H61.3173V109.853Z" fill="#FFF55C"/>
</g>
<defs>
<clipPath id="clip0">
<rect width="112" height="134" fill="white"/>
</clipPath>
</defs>
</svg>
