<svg width="148" height="148" viewBox="0 0 148 148" fill="none" xmlns="http://www.w3.org/2000/svg">
<path fill-rule="evenodd" clip-rule="evenodd" d="M122.847 96.5922C106.471 128.772 74 148 74 148C74 148 41.5288 128.772 25.1526 96.5922C8.23766 63.3529 7.39998 23.3603 7.39998 23.3603L74 0L140.6 23.3603C140.6 23.3603 139.762 63.3529 122.847 96.5922Z" fill="#ECF0F1"/>
<path fill-rule="evenodd" clip-rule="evenodd" d="M73.9852 128.76C64.4303 121.656 47.7921 107.401 38.1085 88.2938C28.2339 68.8082 24.4111 46.2278 22.9489 32.9715L74 14.9909L125.051 32.9715C123.59 46.2174 119.769 68.8022 109.891 88.2924C100.257 107.307 83.543 121.632 73.9852 128.76Z" fill="#E64C3C"/>
<path fill-rule="evenodd" clip-rule="evenodd" d="M92.9277 68.1407C97.2848 63.7244 97.2819 56.5686 92.9277 52.1523C91.8763 51.0817 90.6181 50.2363 89.2297 49.6674C87.8413 49.0985 86.3516 48.818 84.8513 48.843C80.771 48.9126 74.0414 54.3871 74.0414 54.3871C74.0414 54.3871 67.1224 48.8356 62.9414 48.8415C61.4758 48.8443 60.0254 49.1384 58.6744 49.7068C57.3235 50.2752 56.099 51.1064 55.0723 52.1523C50.7181 56.5686 50.7151 63.7244 55.0723 68.1407L74 87.32L92.9277 68.1407Z" fill="white"/>
<path opacity="0.08" fill-rule="evenodd" clip-rule="evenodd" d="M74 0L7.39998 23.3603C7.39998 23.3603 8.23766 63.3529 25.1526 96.5922C41.5288 128.772 74 148 74 148V0Z" fill="black"/>
</svg>
