<svg width="86" height="159" viewBox="0 0 86 159" fill="none" xmlns="http://www.w3.org/2000/svg">
<path d="M15.9259 0H70.0741C79.6519 0 86 6.41565 86 15.9V143.1C86 152.522 79.6233 159 70.0741 159H15.9259C6.41178 159 0 152.646 0 143.1V15.9C0 6.52536 6.29074 0 15.9259 0Z" fill="#1C3C50"/>
<path d="M6.37036 15.9H79.6296V141.51H6.37036V15.9ZM35.8333 146.28H50.1667C51.2226 146.28 52.2353 146.699 52.982 147.444C53.7287 148.19 54.1481 149.201 54.1481 150.255C54.1481 151.309 53.7287 152.32 52.982 153.066C52.2353 153.811 51.2226 154.23 50.1667 154.23H35.8333C34.7774 154.23 33.7647 153.811 33.018 153.066C32.2713 152.32 31.8518 151.309 31.8518 150.255C31.8518 149.201 32.2713 148.19 33.018 147.444C33.7647 146.699 34.7774 146.28 35.8333 146.28V146.28Z" fill="#23475F"/>
</svg>
